<?xml version="1.0" standalone="no"?>
<!DOCTYPE svg PUBLIC "-//W3C//DTD SVG 20010904//EN"
 "http://www.w3.org/TR/2001/REC-SVG-20010904/DTD/svg10.dtd">
<svg version="1.0" xmlns="http://www.w3.org/2000/svg" fill="white"
 width="123.000000pt" height="122.000000pt" viewBox="0 0 123.000000 122.000000"
 preserveAspectRatio="xMidYMid meet">
<metadata>
Created by potrace 1.11, written by Peter Selinger 2001-2013
</metadata>
<g transform="translate(0.000000,122.000000) scale(0.100000,-0.100000)"
stroke="none">
<path d="M545 1154 c-231 -49 -389 -189 -451 -399 -37 -129 -15 -300 55 -420
177 -306 601 -367 851 -122 136 133 195 318 161 502 -39 207 -215 385 -426
430 -67 14 -147 18 -190 9z m178 -89 c211 -44 368 -238 367 -454 -1 -127 -41
-228 -127 -322 -177 -191 -483 -197 -667 -13 -187 187 -186 487 3 667 120 115
264 156 424 122z"/>
<path d="M576 929 c-14 -11 -26 -27 -26 -35 0 -9 -11 -14 -34 -14 -44 0 -86
-33 -86 -69 0 -34 11 -48 77 -95 63 -45 90 -39 95 22 4 50 32 51 36 1 2 -26
10 -40 26 -49 22 -11 29 -8 80 29 64 47 79 70 70 106 -8 33 -40 55 -81 55 -18
0 -33 5 -33 10 0 20 -49 60 -73 60 -13 0 -36 -9 -51 -21z"/>
<path d="M329 745 c-14 -8 -32 -28 -39 -45 -8 -19 -20 -30 -32 -30 -22 0 -60
-18 -70 -34 -23 -34 13 -86 60 -86 22 0 31 -7 43 -32 19 -44 59 -66 96 -52 40
15 152 97 152 111 1 8 -20 13 -56 15 -44 2 -58 7 -58 18 0 11 14 16 58 18 31
2 57 7 57 12 0 13 -133 108 -160 114 -14 3 -37 -1 -51 -9z"/>
<path d="M852 749 c-31 -12 -142 -98 -142 -109 0 -5 24 -10 52 -12 41 -2 54
-7 56 -20 3 -15 -5 -18 -52 -18 -38 0 -56 -4 -56 -12 1 -14 99 -89 142 -109
38 -17 82 3 103 47 11 24 23 34 38 34 36 0 67 28 67 59 0 35 -17 50 -64 58
-26 4 -36 11 -36 23 0 20 -54 70 -73 69 -7 0 -22 -4 -35 -10z"/>
<path d="M515 509 c-67 -51 -85 -71 -85 -99 0 -38 38 -70 83 -70 24 0 37 -5
37 -13 0 -23 45 -57 74 -57 27 0 76 39 76 60 0 5 14 10 31 10 41 0 68 16 80
47 15 39 3 60 -63 108 -53 38 -63 42 -84 33 -19 -9 -24 -19 -24 -50 0 -32 -3
-39 -17 -36 -12 2 -19 14 -21 38 -3 29 -25 60 -42 59 -3 0 -23 -14 -45 -30z"/>
</g>
</svg>
