<?xml version="1.0" standalone="no"?>
<!DOCTYPE svg PUBLIC "-//W3C//DTD SVG 20010904//EN"
 "http://www.w3.org/TR/2001/REC-SVG-20010904/DTD/svg10.dtd">
<svg version="1.0" xmlns="http://www.w3.org/2000/svg"
 width="123.000000pt" height="119.000000pt" viewBox="0 0 123.000000 119.000000"
 preserveAspectRatio="xMidYMid meet">
<metadata>
Created by potrace 1.11, written by Peter Selinger 2001-2013
</metadata>
<g transform="translate(0.000000,119.000000) scale(0.100000,-0.100000)"
 stroke="none">
<path fill="#202020" d="M0 595 l0 -595 615 0 615 0 0 595 0 595 -615 0 -615 0 0 -595z m705
540 c49 -6 96 -24 182 -67 41 -21 102 -66 73 -53 -8 3 -4 -2 10 -12 31 -22 51
-43 70 -73 8 -12 21 -28 28 -36 6 -7 12 -17 12 -22 0 -6 5 -12 11 -14 5 -2 12
-12 14 -23 2 -11 4 -21 5 -22 2 -2 3 -6 4 -10 1 -5 8 -19 15 -31 7 -13 10 -26
7 -29 -3 -4 -1 -11 4 -18 24 -29 22 -186 -3 -270 -2 -5 -7 -25 -11 -42 -4 -18
-12 -33 -18 -33 -6 0 -9 -3 -5 -6 8 -9 -21 -64 -34 -64 -6 0 -7 -5 -4 -10 7
-11 -137 -159 -157 -161 -7 -1 -17 -1 -21 0 -5 1 -6 -3 -3 -8 5 -8 -29 -25
-57 -29 -4 -1 -20 -8 -36 -16 -51 -27 -197 -40 -266 -24 -16 4 -43 10 -59 13
-16 3 -39 11 -50 17 -12 7 -26 13 -32 14 -18 3 -104 55 -104 62 0 4 -16 18
-35 31 -19 13 -35 30 -35 37 0 7 -9 18 -20 24 -11 6 -20 16 -20 22 0 6 -11 25
-24 42 -13 17 -34 60 -47 96 -21 56 -24 82 -23 185 0 77 5 131 14 150 7 17 13
33 12 38 -1 4 3 7 9 7 5 0 7 5 4 10 -3 6 -1 10 5 10 6 0 9 4 5 9 -3 5 3 17 12
27 10 10 16 19 14 22 -7 8 23 46 84 105 67 66 123 109 111 86 -4 -7 -1 -6 7 4
8 9 19 17 24 17 5 0 23 6 39 14 46 23 168 46 214 40 14 -1 48 -6 75 -9z"/>
<path fill="#202020" d="M560 1069 c-68 -11 -82 -15 -115 -28 -16 -7 -38 -14 -47 -16 -9 -2
-26 -12 -37 -22 -31 -28 -50 -43 -55 -43 -10 0 -54 -49 -48 -54 3 -3 -2 -6
-12 -6 -9 0 -15 -4 -12 -9 3 -5 -7 -21 -22 -37 -15 -15 -21 -24 -15 -20 11 6
-13 -50 -27 -64 -3 -3 -7 -16 -8 -30 -2 -14 -7 -29 -12 -35 -4 -5 -6 -53 -4
-105 3 -103 6 -129 18 -148 4 -6 5 -12 1 -12 -3 0 0 -10 7 -23 7 -12 11 -25
10 -30 -1 -4 2 -7 8 -7 5 0 10 -7 10 -15 0 -8 3 -15 8 -15 4 0 13 -9 20 -21
11 -17 11 -20 0 -13 -17 10 59 -62 97 -91 25 -20 129 -77 145 -80 87 -19 181
-23 229 -10 25 6 52 10 59 8 6 -3 12 1 12 7 0 7 7 10 15 6 8 -3 15 -2 15 2 0
7 70 46 77 43 7 -1 103 99 123 129 13 19 29 38 35 42 5 4 6 8 2 8 -4 0 -2 10
5 23 31 55 37 93 33 206 -4 134 -6 151 -18 151 -4 0 -6 4 -2 9 3 5 1 12 -5 16
-6 4 -8 10 -6 14 3 4 -4 17 -14 29 -11 12 -20 26 -20 32 0 5 -4 10 -10 10 -5
0 -12 11 -16 25 -3 14 -9 23 -14 20 -4 -2 -16 6 -27 18 -43 48 -111 95 -143
99 -3 1 -21 8 -40 16 -19 8 -57 16 -85 19 -27 2 -54 5 -60 7 -5 1 -30 -1 -55
-5z m98 -157 c17 -15 32 -32 32 -38 0 -5 16 -10 36 -11 73 -2 98 -71 43 -120
-17 -16 -35 -28 -41 -28 -5 0 -15 -8 -23 -18 -8 -11 -21 -16 -36 -13 -13 3
-26 5 -29 5 -3 1 -5 20 -5 43 0 31 -4 43 -15 43 -20 1 -30 -14 -30 -45 0 -50
-39 -65 -72 -27 -11 12 -16 15 -12 7 7 -13 6 -13 -11 0 -69 54 -86 96 -49 126
11 9 13 12 5 8 -10 -5 -12 -3 -7 5 5 7 14 10 22 7 8 -3 14 -2 14 3 0 4 15 7
33 7 21 -1 31 3 30 12 -2 6 2 12 8 12 5 0 7 5 4 10 -3 6 1 10 10 10 10 0 13 5
9 12 -4 6 -3 8 4 4 6 -3 13 -2 17 4 10 17 28 12 63 -18z m-252 -189 c10 -10
20 -18 23 -18 10 -1 92 -63 94 -72 1 -4 -23 -10 -53 -13 -42 -4 -56 -9 -58
-22 -3 -15 4 -18 45 -18 81 0 82 -12 5 -68 -38 -28 -78 -51 -88 -53 -38 -5
-70 12 -89 49 -13 25 -28 37 -43 38 -39 2 -41 4 -58 29 -15 23 -15 27 0 50 10
15 30 27 52 31 19 3 38 14 41 23 20 56 92 81 129 44z m526 -13 c10 -12 16 -26
13 -30 -7 -12 10 -21 48 -26 56 -7 76 -60 35 -96 -12 -11 -30 -17 -39 -15 -22
6 -30 -1 -49 -38 -21 -41 -60 -59 -94 -44 -14 7 -26 16 -26 21 0 5 -4 7 -9 3
-6 -3 -14 3 -20 12 -6 10 -11 14 -11 10 0 -10 -61 39 -72 58 -5 8 7 11 47 11
40 -1 56 3 60 14 9 23 -21 38 -70 35 -42 -3 -44 -2 -34 16 5 11 14 17 19 14 5
-3 14 4 20 15 6 11 15 18 21 15 5 -4 12 1 15 10 17 44 114 55 146 15z m-342
-237 c0 -22 6 -36 20 -43 17 -9 20 -7 26 15 3 14 4 35 1 46 -3 12 -3 18 0 15
4 -3 12 -1 18 4 18 15 57 -3 101 -47 21 -21 32 -29 24 -18 -11 16 -11 18 0 8
16 -15 23 -49 16 -79 -6 -24 -40 -42 -78 -40 -16 1 -28 -4 -28 -10 0 -25 -37
-56 -69 -59 -26 -2 -40 3 -57 22 -13 14 -21 29 -18 34 6 10 -6 12 -48 9 -31
-2 -78 41 -78 71 0 21 63 84 103 102 15 6 27 15 27 20 0 4 9 2 20 -5 13 -9 20
-24 20 -45z"/>
</g>
</svg>
